<svg width="24" height="24" viewBox="0 0 24 24" fill="none" xmlns="http://www.w3.org/2000/svg">
<path d="M23.821 11.181C22.8549 9.08568 21.4398 7.22849 19.676 5.74097L22.708 2.70897L21.293 1.29297L18 4.58297C16.1774 3.52869 14.1055 2.98207 12 2.99997C4.49999 2.99997 1.05699 9.26097 0.178993 11.181C0.0611316 11.4383 0.00012207 11.718 0.00012207 12.001C0.00012207 12.284 0.0611316 12.5637 0.178993 12.821C1.14513 14.9163 2.56021 16.7734 4.32399 18.261L1.29299 21.293L2.70699 22.707L5.99999 19.417C7.82263 20.4713 9.89448 21.0179 12 21C19.5 21 22.943 14.739 23.821 12.819C23.9386 12.562 23.9995 12.2826 23.9995 12C23.9995 11.7173 23.9386 11.438 23.821 11.181ZM1.99999 12.011C2.74999 10.366 5.69299 4.99997 12 4.99997C13.5696 4.99079 15.1186 5.35697 16.518 6.06797L14.753 7.83297C13.7929 7.19557 12.6419 6.90996 11.4952 7.02461C10.3486 7.13926 9.27686 7.64711 8.462 8.46197C7.64713 9.27683 7.13929 10.3485 7.02464 11.4952C6.90999 12.6419 7.1956 13.7929 7.83299 14.753L5.75399 16.832C4.15437 15.5294 2.87087 13.881 1.99999 12.011ZM15 12C15 12.7956 14.6839 13.5587 14.1213 14.1213C13.5587 14.6839 12.7956 15 12 15C11.5545 14.9982 11.1152 14.8957 10.715 14.7L14.7 10.715C14.8957 11.1152 14.9983 11.5545 15 12ZM8.99999 12C8.99999 11.2043 9.31606 10.4413 9.87867 9.87865C10.4413 9.31604 11.2043 8.99997 12 8.99997C12.4455 9.00169 12.8848 9.10426 13.285 9.29997L9.29999 13.285C9.10428 12.8848 9.00172 12.4455 8.99999 12ZM12 19C10.4304 19.0091 8.88135 18.643 7.48199 17.932L9.24699 16.167C10.2071 16.8044 11.3581 17.09 12.5048 16.9753C13.6514 16.8607 14.7231 16.3528 15.538 15.538C16.3529 14.7231 16.8607 13.6514 16.9753 12.5047C17.09 11.3581 16.8044 10.207 16.167 9.24697L18.245 7.16897C19.8478 8.47278 21.132 10.125 22 12C21.236 13.657 18.292 19 12 19Z" fill="#374957"/>
</svg>
