<svg width="26" height="27" viewBox="0 0 26 27" fill="none" xmlns="http://www.w3.org/2000/svg">
<mask id="mask0_638_1887" style="mask-type:luminance" maskUnits="userSpaceOnUse" x="14" y="2" width="12" height="23">
<path d="M25.7365 5.44443C25.7378 5.07885 25.6666 4.71662 25.5269 4.37859C25.3872 4.04057 25.1818 3.73342 24.9226 3.47483C23.837 2.39187 22.0607 2.39249 20.9745 3.47483L15.063 9.36719C13.9777 10.4492 13.9777 12.2203 15.063 13.3011C16.1482 14.3828 17.9254 14.3831 19.0097 13.3011L20.1553 12.1592V21.8816C20.1553 23.4115 21.4114 24.6628 22.9462 24.6628C24.4807 24.6628 25.7368 23.4115 25.7368 21.8816L25.7365 5.44443Z" fill="white"/>
</mask>
<g mask="url(#mask0_638_1887)">
<path d="M25.7382 2.39185H13.9775V24.6628H25.7382V2.39185Z" fill="#4EA0F3"/>
</g>
<path fill-rule="evenodd" clip-rule="evenodd" d="M1.00002 5.44443C0.99879 5.07881 1.07013 4.71656 1.20992 4.37853C1.34972 4.0405 1.55521 3.73337 1.81457 3.47483C2.89981 2.39187 4.67609 2.39249 5.7604 3.47483L11.6745 9.36719C12.7597 10.4492 12.76 12.2203 11.6745 13.3011C10.5889 14.3828 8.81202 14.3831 7.72709 13.3011L6.5818 12.1602V21.8816C6.5818 23.4115 5.32574 24.6628 3.79122 24.6628C2.25607 24.6628 1.00002 23.4115 1.00002 21.8816V5.44443Z" fill="#FABF00"/>
</svg>
