<svg width="147" height="23" viewBox="0 0 147 23" fill="none" xmlns="http://www.w3.org/2000/svg">
<g id="Mtravel-03 2" clip-path="url(#clip0_591_33422)">
<path id="Vector" fill-rule="evenodd" clip-rule="evenodd" d="M24.4177 3.70476C24.419 3.34442 24.3488 2.98738 24.2111 2.65419C24.0734 2.321 23.8709 2.01825 23.6154 1.76337C22.5454 0.695922 20.7945 0.696534 19.7239 1.76337L13.897 7.57134C12.8273 8.63787 12.8273 10.3836 13.897 11.4489C14.9667 12.5152 16.7185 12.5155 17.7872 11.4489L18.9164 10.3234V19.9066C18.9164 21.4145 20.1545 22.6479 21.6674 22.6479C23.1799 22.6479 24.418 21.4145 24.418 19.9066L24.4177 3.70476Z" fill="url(#paint0_linear_591_33422)"/>
<g id="Clip path group">
<mask id="mask0_591_33422" style="mask-type:luminance" maskUnits="userSpaceOnUse" x="13" y="0" width="12" height="23">
<g id="clip-path">
<path id="Vector_2" d="M24.4177 3.70476C24.419 3.34442 24.3488 2.98738 24.2111 2.65419C24.0734 2.321 23.8709 2.01825 23.6154 1.76337C22.5454 0.695922 20.7945 0.696534 19.7239 1.76337L13.897 7.57134C12.8273 8.63787 12.8273 10.3836 13.897 11.4489C14.9667 12.5152 16.7185 12.5155 17.7872 11.4489L18.9164 10.3234V19.9066C18.9164 21.4145 20.1545 22.6479 21.6674 22.6479C23.1799 22.6479 24.418 21.4145 24.418 19.9066L24.4177 3.70476Z" fill="white"/>
</g>
</mask>
<g mask="url(#mask0_591_33422)">
<g id="Group">
<path id="Vector_3" d="M24.4193 0.695801H12.8271V22.6478H24.4193V0.695801Z" fill="#4EA0F3"/>
</g>
</g>
</g>
<path id="Vector_4" fill-rule="evenodd" clip-rule="evenodd" d="M0.0351716 3.70488C0.0339631 3.3445 0.10428 2.98744 0.242073 2.65425C0.379867 2.32107 0.582416 2.01834 0.83806 1.76349C1.90776 0.696044 3.6586 0.696656 4.72738 1.76349L10.5568 7.57147C11.6265 8.63799 11.6268 10.3837 10.5568 11.4491C9.48674 12.5153 7.7353 12.5156 6.6659 11.4491L5.53701 10.3244V19.9067C5.53701 21.4146 4.29894 22.6481 2.7864 22.6481C1.27324 22.6481 0.0351716 21.4146 0.0351716 19.9067V3.70488Z" fill="#FABF00"/>
<path id="Vector_5" d="M43.5045 0.937992H28.3015C27.5483 0.937992 26.9734 1.13067 26.5767 1.51604C26.1801 1.9014 25.9816 2.46906 25.9814 3.219C25.9814 3.94938 26.1799 4.51224 26.5767 4.90759C26.9736 5.30294 27.5485 5.50072 28.3015 5.50092H33.0949V19.8329C33.0949 20.7259 33.3391 21.4207 33.8275 21.9173C34.316 22.4139 35.008 22.6625 35.9035 22.6629C36.8395 22.6629 37.5416 22.4143 38.0101 21.9173C38.4785 21.4203 38.7125 20.7255 38.712 19.8329V5.50092H43.5051C44.2577 5.50092 44.8327 5.30314 45.2299 4.90759C45.6272 4.51204 45.8256 3.94917 45.8252 3.219C45.8252 2.46844 45.6268 1.90038 45.2299 1.51482C44.8331 1.12925 44.2579 0.936973 43.5045 0.937992Z" fill="#4EA0F3"/>
<path id="Vector_6" d="M63.7453 16.3031C63.2971 15.4511 62.7374 14.8172 62.0662 14.4015C61.7471 14.2048 61.402 14.0534 61.041 13.9518C61.4401 13.8405 61.829 13.6957 62.2036 13.519C63.333 12.982 64.1979 12.2112 64.7984 11.2065C65.3989 10.2018 65.6991 9.01984 65.6991 7.66057C65.6991 5.55115 65.0325 3.90291 63.6993 2.71584C62.366 1.52878 60.4784 0.936158 58.0364 0.937993H50.5264C49.6307 0.937993 48.9337 1.18142 48.4355 1.66827C47.9372 2.15512 47.6879 2.85493 47.6875 3.7677V19.8329C47.6875 20.7259 47.9317 21.4207 48.4202 21.9173C48.9086 22.4139 49.6006 22.6625 50.4961 22.6629C51.4317 22.6629 52.1337 22.4143 52.6024 21.9173C53.071 21.4203 53.3051 20.7255 53.3046 19.8329V14.3862H54.9837C55.472 14.3862 55.9044 14.4724 56.281 14.6448C56.6576 14.8172 56.9679 15.1266 57.2121 15.5729L59.9915 20.6545C60.3775 21.3446 60.8202 21.8517 61.3194 22.1759C61.8187 22.5001 62.4649 22.6625 63.2579 22.6629C64.0516 22.6629 64.6571 22.4854 65.0744 22.1304C65.4917 21.7754 65.7105 21.3189 65.7307 20.7609C65.7512 20.2033 65.5985 19.6303 65.2728 19.0417L63.7453 16.3031ZM57.029 10.4304H53.3059V5.22703H57.029C58.1075 5.22703 58.9317 5.44518 59.5017 5.88149C60.0717 6.31781 60.3567 6.96188 60.3564 7.81372C60.3564 8.70672 60.0715 9.36597 59.5017 9.79148C58.9319 10.217 58.1077 10.43 57.029 10.4304Z" fill="#4EA0F3"/>
<path id="Vector_7" d="M81.6957 2.94507C81.3091 2.15376 80.8563 1.57561 80.3374 1.21063C79.8185 0.84564 79.213 0.663046 78.5209 0.662842C77.8288 0.662842 77.2135 0.845436 76.675 1.21063C76.1365 1.57581 75.6836 2.15396 75.3164 2.94507L67.7138 19.2548C67.4276 19.9045 67.3356 20.4877 67.4378 21.0045C67.54 21.5213 67.8046 21.9271 68.2315 22.2217C68.659 22.5154 69.1881 22.6624 69.8189 22.6628C70.6126 22.6628 71.2027 22.4802 71.5893 22.1151C71.976 21.7499 72.3531 21.1611 72.7207 20.3488L73.707 18.0363H83.3042L84.2908 20.3488C84.6363 21.1607 85.0281 21.7491 85.466 22.1138C85.9039 22.4786 86.5298 22.6612 87.3435 22.6616C87.9542 22.6616 88.4681 22.5196 88.8852 22.2355C89.3023 21.9514 89.5564 21.5467 89.6476 21.0213C89.7394 20.4941 89.6224 19.9058 89.2967 19.2563L81.6957 2.94507ZM78.4599 6.77895H78.5212L81.4739 13.7485H75.5323L78.4599 6.77895Z" fill="#4EA0F3"/>
<path id="Vector_8" d="M109.444 1.13451C109.017 0.820065 108.488 0.662842 107.857 0.662842C107.083 0.662842 106.483 0.840342 106.056 1.19534C105.629 1.55034 105.263 2.08284 104.957 2.79284L99.5831 15.2133L94.211 2.82341C93.9059 2.11321 93.5447 1.57561 93.1272 1.21063C92.7097 0.84564 92.084 0.663046 91.25 0.662842C90.578 0.662842 90.0183 0.820065 89.5709 1.13451C89.1236 1.44896 88.8387 1.89016 88.7162 2.45812C88.5935 3.02648 88.6958 3.66546 89.0229 4.37506L96.4093 20.6239C96.7344 21.3343 97.1362 21.8517 97.6148 22.1759C98.0935 22.5001 98.7189 22.6624 99.4911 22.6628C100.264 22.6628 100.885 22.5005 101.353 22.1759C101.821 21.8513 102.209 21.3339 102.515 20.6239L109.933 4.37506C110.258 3.66526 110.365 3.02628 110.253 2.45812C110.142 1.88995 109.872 1.44875 109.444 1.13451Z" fill="#4EA0F3"/>
<path id="Vector_9" d="M126.021 5.2576C126.754 5.2576 127.303 5.06991 127.669 4.69453C128.036 4.31915 128.219 3.77656 128.219 3.06677C128.219 2.37756 128.036 1.85015 127.669 1.48456C127.303 1.11896 126.754 0.936772 126.021 0.937994H115.672C114.715 0.937994 113.987 1.18651 113.489 1.68355C112.991 2.18059 112.742 2.89559 112.741 3.82853V19.4981C112.741 20.4317 112.991 21.1468 113.489 21.6434C113.988 22.14 114.715 22.3886 115.672 22.389H126.021C126.754 22.389 127.303 22.2064 127.669 21.8412C128.036 21.476 128.219 20.9384 128.219 20.2284C128.219 19.5392 128.036 19.0067 127.669 18.6309C127.303 18.2551 126.754 18.0675 126.021 18.0682H118.114V13.6559H125.349C126.062 13.6559 126.606 13.4733 126.983 13.1081C127.359 12.743 127.547 12.2054 127.547 11.4954C127.547 10.7856 127.359 10.2481 126.983 9.88288C126.606 9.5177 126.062 9.3351 125.349 9.3351H118.114V5.2576H126.021Z" fill="#4EA0F3"/>
<path id="Vector_10" d="M146.338 18.3268C145.921 17.9313 145.326 17.7335 144.552 17.7335H137.103V3.73626C137.103 2.82349 136.864 2.12358 136.386 1.63653C135.907 1.14947 135.21 0.906455 134.295 0.907474C133.399 0.907474 132.707 1.15049 132.219 1.63653C131.731 2.12256 131.487 2.82248 131.486 3.73626V19.559C131.486 20.452 131.736 21.1468 132.234 21.6435C132.733 22.1401 133.43 22.3886 134.325 22.389H144.552C145.325 22.389 145.921 22.1862 146.338 21.7804C146.756 21.3747 146.964 20.7965 146.964 20.046C146.964 19.2958 146.756 18.7228 146.338 18.3268Z" fill="#4EA0F3"/>
</g>
<defs>
<linearGradient id="paint0_linear_591_33422" x1="18.756" y1="0.962783" x2="18.756" y2="22.6479" gradientUnits="userSpaceOnUse">
<stop stop-color="#0C99AA"/>
<stop offset="1" stop-color="#18A88F"/>
</linearGradient>
<clipPath id="clip0_591_33422">
<rect width="146.929" height="22" fill="white" transform="translate(0.0351562 0.662842)"/>
</clipPath>
</defs>
</svg>
