<svg width="0" height="0" class="hidden">
    <symbol
            id="copy"
            fill="none"
            viewBox="0 0 18 18"
            xmlns="http://www.w3.org/2000/svg"
    >
        <g clip-path="url(#clip0_593_46011)">
            <path d="M15.8663 2.454L14.1532 0.68475C13.9429 0.468724 13.6915 0.29688 13.4138 0.179296C13.1361 0.0617118 12.8378 0.000754823 12.5363 0L9 0C8.13585 0.00109089 7.29849 0.300068 6.62906 0.846539C5.95964 1.39301 5.49907 2.15356 5.325 3H5.25C4.2558 3.00119 3.30267 3.39666 2.59966 4.09966C1.89666 4.80267 1.50119 5.7558 1.5 6.75V14.25C1.50119 15.2442 1.89666 16.1973 2.59966 16.9003C3.30267 17.6033 4.2558 17.9988 5.25 18H9.75C10.7442 17.9988 11.6973 17.6033 12.4003 16.9003C13.1033 16.1973 13.4988 15.2442 13.5 14.25V14.175C14.3464 14.0009 15.107 13.5404 15.6535 12.8709C16.1999 12.2015 16.4989 11.3642 16.5 10.5V4.02C16.5011 3.43531 16.2737 2.87334 15.8663 2.454ZM9.75 16.5H5.25C4.65326 16.5 4.08097 16.2629 3.65901 15.841C3.23705 15.419 3 14.8467 3 14.25V6.75C3 6.15326 3.23705 5.58097 3.65901 5.15901C4.08097 4.73705 4.65326 4.5 5.25 4.5V10.5C5.25119 11.4942 5.64666 12.4473 6.34966 13.1503C7.05267 13.8533 8.0058 14.2488 9 14.25H12C12 14.8467 11.7629 15.419 11.341 15.841C10.919 16.2629 10.3467 16.5 9.75 16.5ZM12.75 12.75H9C8.40326 12.75 7.83097 12.5129 7.40901 12.091C6.98705 11.669 6.75 11.0967 6.75 10.5V3.75C6.75 3.15326 6.98705 2.58097 7.40901 2.15901C7.83097 1.73705 8.40326 1.5 9 1.5H12V3C12 3.39782 12.158 3.77936 12.4393 4.06066C12.7206 4.34196 13.1022 4.5 13.5 4.5H15V10.5C15 11.0967 14.7629 11.669 14.341 12.091C13.919 12.5129 13.3467 12.75 12.75 12.75Z"
                  fill="currentColor"/>
        </g>
        <defs>
            <clipPath id="clip0_593_46011">
                <rect width="18" height="18" fill="white"/>
            </clipPath>
        </defs>
    </symbol>

    <symbol
            id="currency"
            fill="none"
            viewBox="0 0 12 16"
            xmlns="http://www.w3.org/2000/svg"
    >
        <path d="M10.6321 3.6513H9.27656C9.19639 3.26139 9.0561 2.91886 8.85568 2.62369C8.6589 2.32853 8.4184 2.08073 8.13416 1.88031C7.85357 1.67625 7.54201 1.5232 7.19947 1.42117C6.85693 1.31913 6.49982 1.26812 6.12813 1.26812C5.45034 1.26812 4.83633 1.43939 4.28608 1.78192C3.73948 2.12446 3.30402 2.62916 2.9797 3.29601C2.65903 3.96287 2.49869 4.78095 2.49869 5.75026C2.49869 6.71956 2.65903 7.53765 2.9797 8.2045C3.30402 8.87136 3.73948 9.37605 4.28608 9.71859C4.83633 10.0611 5.45034 10.2324 6.12813 10.2324C6.49982 10.2324 6.85693 10.1814 7.19947 10.0793C7.54201 9.97731 7.85357 9.82609 8.13416 9.62567C8.4184 9.4216 8.6589 9.17199 8.85568 8.87682C9.0561 8.57801 9.19639 8.23547 9.27656 7.84921H10.6321C10.5301 8.42132 10.3443 8.9333 10.0746 9.38516C9.80494 9.83702 9.46969 10.2215 9.06885 10.5385C8.66801 10.8519 8.21797 11.0906 7.71874 11.2545C7.22316 11.4185 6.69295 11.5005 6.12813 11.5005C5.1734 11.5005 4.32434 11.2673 3.58096 10.8009C2.83759 10.3344 2.25272 9.67122 1.82637 8.81123C1.40002 7.95124 1.18685 6.93092 1.18685 5.75026C1.18685 4.5696 1.40002 3.54927 1.82637 2.68928C2.25272 1.8293 2.83759 1.16609 3.58096 0.699651C4.32434 0.233217 5.1734 0 6.12813 0C6.69295 0 7.22316 0.0819903 7.71874 0.245971C8.21797 0.409952 8.66801 0.650457 9.06885 0.967486C9.46969 1.28087 9.80494 1.66349 10.0746 2.11535C10.3443 2.56356 10.5301 3.07555 10.6321 3.6513Z"
              fill="currentColor"/>
        <path d="M0.268555 14.4084H11.463V15.4579H0.268555V14.4084Z" fill="#B5C7D9"/>
    </symbol>

    <symbol
            id="cross"
            fill="none"
            viewBox="0 0 16 16"
            xmlns="http://www.w3.org/2000/svg"
    >
        <path d="M11.9999 3.99988C11.8749 3.8749 11.7053 3.80469 11.5285 3.80469C11.3518 3.80469 11.1822 3.8749 11.0572 3.99988L7.99988 7.05721L4.94255 3.99988C4.81753 3.8749 4.64799 3.80469 4.47121 3.80469C4.29444 3.80469 4.1249 3.8749 3.99988 3.99988C3.8749 4.1249 3.80469 4.29444 3.80469 4.47121C3.80469 4.64799 3.8749 4.81753 3.99988 4.94255L7.05721 7.99988L3.99988 11.0572C3.8749 11.1822 3.80469 11.3518 3.80469 11.5285C3.80469 11.7053 3.8749 11.8749 3.99988 11.9999C4.1249 12.1249 4.29444 12.1951 4.47121 12.1951C4.64799 12.1951 4.81753 12.1249 4.94255 11.9999L7.99988 8.94255L11.0572 11.9999C11.1822 12.1249 11.3518 12.1951 11.5285 12.1951C11.7053 12.1951 11.8749 12.1249 11.9999 11.9999C12.1249 11.8749 12.1951 11.7053 12.1951 11.5285C12.1951 11.3518 12.1249 11.1822 11.9999 11.0572L8.94255 7.99988L11.9999 4.94255C12.1249 4.81753 12.1951 4.64799 12.1951 4.47121C12.1951 4.29444 12.1249 4.1249 11.9999 3.99988V3.99988Z"
              fill="currentColor"/>
    </symbol>

    <symbol
            id="plus"
            fill="none"
            viewBox="0 0 16 16"
            xmlns="http://www.w3.org/2000/svg"
    >
        <g clip-path="url(#clip0_782_9260)">
            <path d="M8 0C6.41775 0 4.87103 0.469192 3.55544 1.34824C2.23985 2.22729 1.21447 3.47672 0.608967 4.93853C0.00346629 6.40034 -0.15496 8.00887 0.153721 9.56072C0.462403 11.1126 1.22433 12.538 2.34315 13.6569C3.46197 14.7757 4.88743 15.5376 6.43928 15.8463C7.99113 16.155 9.59966 15.9965 11.0615 15.391C12.5233 14.7855 13.7727 13.7602 14.6518 12.4446C15.5308 11.129 16 9.58225 16 8C15.9977 5.87897 15.1541 3.84547 13.6543 2.34568C12.1545 0.845885 10.121 0.00229405 8 0V0ZM8 14.6667C6.68146 14.6667 5.39253 14.2757 4.2962 13.5431C3.19987 12.8106 2.34539 11.7694 1.84081 10.5512C1.33622 9.33305 1.2042 7.9926 1.46144 6.6994C1.71867 5.40619 2.35361 4.2183 3.28596 3.28595C4.21831 2.3536 5.4062 1.71867 6.6994 1.46143C7.99261 1.2042 9.33305 1.33622 10.5512 1.8408C11.7694 2.34539 12.8106 3.19987 13.5431 4.2962C14.2757 5.39253 14.6667 6.68146 14.6667 8C14.6647 9.76751 13.9617 11.4621 12.7119 12.7119C11.4621 13.9617 9.76752 14.6647 8 14.6667V14.6667ZM11.3333 8C11.3333 8.17681 11.2631 8.34638 11.1381 8.4714C11.0131 8.59643 10.8435 8.66667 10.6667 8.66667H8.66667V10.6667C8.66667 10.8435 8.59643 11.013 8.47141 11.1381C8.34638 11.2631 8.17682 11.3333 8 11.3333C7.82319 11.3333 7.65362 11.2631 7.5286 11.1381C7.40358 11.013 7.33334 10.8435 7.33334 10.6667V8.66667H5.33334C5.15653 8.66667 4.98696 8.59643 4.86193 8.4714C4.73691 8.34638 4.66667 8.17681 4.66667 8C4.66667 7.82319 4.73691 7.65362 4.86193 7.5286C4.98696 7.40357 5.15653 7.33333 5.33334 7.33333H7.33334V5.33333C7.33334 5.15652 7.40358 4.98695 7.5286 4.86193C7.65362 4.7369 7.82319 4.66667 8 4.66667C8.17682 4.66667 8.34638 4.7369 8.47141 4.86193C8.59643 4.98695 8.66667 5.15652 8.66667 5.33333V7.33333H10.6667C10.8435 7.33333 11.0131 7.40357 11.1381 7.5286C11.2631 7.65362 11.3333 7.82319 11.3333 8Z"
                  fill="currentColor"/>
        </g>
        <defs>
            <clipPath id="clip0_782_9260">
                <rect width="16" height="16" fill="currentColor"/>
            </clipPath>
        </defs>
    </symbol>

    <symbol
            id="load"
            fill="none"
            xmlns="http://www.w3.org/2000/svg"
            viewBox="0 0 17 16"
    >
        <g clip-path="url(#clip0_807_14063)">
            <path d="M15.1667 11.3337V14.0003C15.1667 14.1771 15.0964 14.3467 14.9714 14.4717C14.8464 14.5968 14.6768 14.667 14.5 14.667H2.5C2.32319 14.667 2.15362 14.5968 2.0286 14.4717C1.90357 14.3467 1.83333 14.1771 1.83333 14.0003V11.3337C1.83333 11.1568 1.7631 10.9873 1.63807 10.8623C1.51305 10.7372 1.34348 10.667 1.16667 10.667V10.667C0.989856 10.667 0.820286 10.7372 0.695262 10.8623C0.570238 10.9873 0.5 11.1568 0.5 11.3337L0.5 14.0003C0.5 14.5308 0.710714 15.0395 1.08579 15.4145C1.46086 15.7896 1.96957 16.0003 2.5 16.0003H14.5C15.0304 16.0003 15.5391 15.7896 15.9142 15.4145C16.2893 15.0395 16.5 14.5308 16.5 14.0003V11.3337C16.5 11.1568 16.4298 10.9873 16.3047 10.8623C16.1797 10.7372 16.0101 10.667 15.8333 10.667C15.6565 10.667 15.487 10.7372 15.3619 10.8623C15.2369 10.9873 15.1667 11.1568 15.1667 11.3337Z"
                  fill="currentColor"/>
            <path d="M12.9714 3.64165L9.91405 0.583649C9.5384 0.209845 9.03001 0 8.50005 0C7.9701 0 7.46171 0.209845 7.08605 0.583649L4.02872 3.64165C3.96505 3.70315 3.91426 3.77671 3.87932 3.85805C3.84438 3.93938 3.82599 4.02686 3.82522 4.11538C3.82445 4.2039 3.84132 4.29169 3.87484 4.37362C3.90836 4.45555 3.95786 4.52998 4.02046 4.59258C4.08305 4.65517 4.15749 4.70468 4.23942 4.7382C4.32135 4.77172 4.40914 4.78859 4.49766 4.78782C4.58617 4.78705 4.67365 4.76866 4.75499 4.73372C4.83633 4.69878 4.90989 4.64799 4.97139 4.58432L7.83339 1.72298V12.0003C7.83339 12.1771 7.90363 12.3467 8.02865 12.4717C8.15367 12.5967 8.32324 12.667 8.50005 12.667C8.67687 12.667 8.84643 12.5967 8.97146 12.4717C9.09648 12.3467 9.16672 12.1771 9.16672 12.0003V1.72232L12.0287 4.58432C12.0902 4.64799 12.1638 4.69878 12.2451 4.73372C12.3265 4.76866 12.4139 4.78705 12.5025 4.78782C12.591 4.78859 12.6788 4.77172 12.7607 4.7382C12.8426 4.70468 12.9171 4.65517 12.9797 4.59258C13.0422 4.52998 13.0917 4.45555 13.1253 4.37362C13.1588 4.29169 13.1757 4.2039 13.1749 4.11538C13.1741 4.02686 13.1557 3.93938 13.1208 3.85805C13.0858 3.77671 13.0351 3.70315 12.9714 3.64165V3.64165Z"
                  fill="currentColor"/>
        </g>
        <defs>
            <clipPath id="clip0_807_14063">
                <rect width="16" height="16" fill="currentColor" transform="translate(0.5)"/>
            </clipPath>
        </defs>
    </symbol>

    <symbol
            fill="none"
            id="plus_simple"
            viewBox="0 0 17 16"
            xmlns="http://www.w3.org/2000/svg"
    >
        <path d="M13.1667 7.33317H9.16675V3.33317C9.16675 3.15636 9.09651 2.98679 8.97148 2.86177C8.84646 2.73674 8.67689 2.6665 8.50008 2.6665C8.32327 2.6665 8.1537 2.73674 8.02868 2.86177C7.90365 2.98679 7.83341 3.15636 7.83341 3.33317V7.33317H3.83341C3.6566 7.33317 3.48703 7.40341 3.36201 7.52843C3.23699 7.65346 3.16675 7.82303 3.16675 7.99984C3.16675 8.17665 3.23699 8.34622 3.36201 8.47124C3.48703 8.59626 3.6566 8.6665 3.83341 8.6665H7.83341V12.6665C7.83341 12.8433 7.90365 13.0129 8.02868 13.1379C8.1537 13.2629 8.32327 13.3332 8.50008 13.3332C8.67689 13.3332 8.84646 13.2629 8.97148 13.1379C9.09651 13.0129 9.16675 12.8433 9.16675 12.6665V8.6665H13.1667C13.3436 8.6665 13.5131 8.59626 13.6382 8.47124C13.7632 8.34622 13.8334 8.17665 13.8334 7.99984C13.8334 7.82303 13.7632 7.65346 13.6382 7.52843C13.5131 7.40341 13.3436 7.33317 13.1667 7.33317Z"
              fill="currentColor"/>
    </symbol>

    <symbol
            id="arrow_left"
            xmlns="http://www.w3.org/2000/svg"
            viewBox="0 0 24 24"
            fill="none"
    >
        <path d="M15 18L9 12L15 6" stroke="currentColor" stroke-width="1.6" stroke-linecap="round"/>
    </symbol>

    <symbol
            id="chat"
            xmlns="http://www.w3.org/2000/svg"
            viewBox="0 0 16 16"
            fill="none"
    >
        <path d="M15.836 7.32358C15.6899 5.11337 14.5939 3.04929 12.8586 1.67932C11.1233 0.30936 8.85831 -0.256892 6.66637 0.108432C2.75741 0.784281 -0.110386 4.40099 0.163607 8.38301C0.29147 10.301 1.09518 12.0728 2.44688 13.4245C2.09982 13.9359 1.7893 14.2647 0.967319 14.9223C0.802923 15.0502 0.729859 15.2511 0.784657 15.452C0.82119 15.653 0.967319 15.8173 1.14998 15.8721C1.42397 15.9635 1.82583 16 2.28248 16C3.25059 16 4.47443 15.7808 5.42427 15.2876C6.68464 15.726 8.03633 15.8356 9.36976 15.5982C13.2787 14.904 16.11 11.2691 15.836 7.32358ZM4.34656 9.27806C3.63418 9.27806 3.06793 8.71181 3.06793 7.99942C3.06793 7.28704 3.63418 6.72079 4.34656 6.72079C5.05894 6.72079 5.6252 7.28704 5.6252 7.99942C5.6252 8.71181 5.05894 9.27806 4.34656 9.27806ZM7.9998 9.27806C7.28742 9.27806 6.72117 8.71181 6.72117 7.99942C6.72117 7.28704 7.28742 6.72079 7.9998 6.72079C8.71218 6.72079 9.27843 7.28704 9.27843 7.99942C9.27843 8.71181 8.71218 9.27806 7.9998 9.27806ZM11.653 9.27806C10.9407 9.27806 10.3744 8.71181 10.3744 7.99942C10.3744 7.28704 10.9407 6.72079 11.653 6.72079C12.3654 6.72079 12.9317 7.28704 12.9317 7.99942C12.9317 8.71181 12.3654 9.27806 11.653 9.27806Z"
              fill="currentColor"/>
    </symbol>

    <symbol
            fill="none"
            id="letter"
            viewBox="0 0 20 20"
            xmlns="http://www.w3.org/2000/svg"
    >
        <g clip-path="url(#clip0_1364_15919)">
            <path d="M15.8333 0.833496H4.16667C3.062 0.834819 2.00296 1.27423 1.22185 2.05535C0.440735 2.83646 0.00132321 3.8955 0 5.00016L0 15.0002C0.00132321 16.1048 0.440735 17.1639 1.22185 17.945C2.00296 18.7261 3.062 19.1655 4.16667 19.1668H15.8333C16.938 19.1655 17.997 18.7261 18.7782 17.945C19.5593 17.1639 19.9987 16.1048 20 15.0002V5.00016C19.9987 3.8955 19.5593 2.83646 18.7782 2.05535C17.997 1.27423 16.938 0.834819 15.8333 0.833496ZM4.16667 2.50016H15.8333C16.3323 2.50114 16.8196 2.65142 17.2325 2.93167C17.6453 3.21191 17.9649 3.60928 18.15 4.07266L11.7683 10.4552C11.2987 10.9229 10.6628 11.1856 10 11.1856C9.33715 11.1856 8.70131 10.9229 8.23167 10.4552L1.85 4.07266C2.03512 3.60928 2.35468 3.21191 2.76754 2.93167C3.1804 2.65142 3.66768 2.50114 4.16667 2.50016ZM15.8333 17.5002H4.16667C3.50363 17.5002 2.86774 17.2368 2.3989 16.7679C1.93006 16.2991 1.66667 15.6632 1.66667 15.0002V6.25016L7.05333 11.6335C7.83552 12.4137 8.89521 12.8519 10 12.8519C11.1048 12.8519 12.1645 12.4137 12.9467 11.6335L18.3333 6.25016V15.0002C18.3333 15.6632 18.0699 16.2991 17.6011 16.7679C17.1323 17.2368 16.4964 17.5002 15.8333 17.5002Z"
                  fill="currentColor"/>
        </g>
        <defs>
            <clipPath id="clip0_1364_15919">
                <rect width="20" height="20" fill="currentColor"/>
            </clipPath>
        </defs>
    </symbol>

    <symbol
            id="home"
            fill="none"
            viewBox="0 0 20 20"
            xmlns="http://www.w3.org/2000/svg"
    >
        <g clip-path="url(#clip0_217_3493)">
            <path d="M19.2675 7.55727L12.9467 1.2356C12.1644 0.455591 11.1047 0.0175781 10 0.0175781C8.89529 0.0175781 7.83564 0.455591 7.05334 1.2356L0.73251 7.55727C0.499531 7.78875 0.314818 8.06418 0.189079 8.36759C0.0633394 8.67099 -0.000925334 8.99634 1.00662e-05 9.32477V17.5056C1.00662e-05 18.1686 0.263402 18.8045 0.732243 19.2734C1.20108 19.7422 1.83697 20.0056 2.50001 20.0056H17.5C18.1631 20.0056 18.7989 19.7422 19.2678 19.2734C19.7366 18.8045 20 18.1686 20 17.5056V9.32477C20.0009 8.99634 19.9367 8.67099 19.8109 8.36759C19.6852 8.06418 19.5005 7.78875 19.2675 7.55727ZM12.5 18.3389H7.50001V15.0606C7.50001 14.3976 7.7634 13.7617 8.23224 13.2928C8.70108 12.824 9.33697 12.5606 10 12.5606C10.6631 12.5606 11.2989 12.824 11.7678 13.2928C12.2366 13.7617 12.5 14.3976 12.5 15.0606V18.3389ZM18.3333 17.5056C18.3333 17.7266 18.2455 17.9386 18.0893 18.0949C17.933 18.2511 17.721 18.3389 17.5 18.3389H14.1667V15.0606C14.1667 13.9555 13.7277 12.8957 12.9463 12.1143C12.1649 11.3329 11.1051 10.8939 10 10.8939C8.89494 10.8939 7.83513 11.3329 7.05373 12.1143C6.27233 12.8957 5.83334 13.9555 5.83334 15.0606V18.3389H2.50001C2.279 18.3389 2.06703 18.2511 1.91075 18.0949C1.75447 17.9386 1.66668 17.7266 1.66668 17.5056V9.32477C1.66745 9.10392 1.75517 8.89225 1.91084 8.7356L8.23168 2.41643C8.70143 1.94887 9.33723 1.68639 10 1.68639C10.6628 1.68639 11.2986 1.94887 11.7683 2.41643L18.0892 8.7381C18.2442 8.89414 18.3319 9.10478 18.3333 9.32477V17.5056Z"
                  fill="currentColor"/>
        </g>
    </symbol>

    <symbol
            fill="none"
            id="transactions"
            viewBox="0 0 20 20"
            xmlns="http://www.w3.org/2000/svg">
        <path d="M17.5 5.83333L3 5.83333M3 5.83333L7.125 2.5M3 5.83333L7.125 9.16667" stroke="currentColor"
              stroke-width="1.5"
              stroke-linecap="round" stroke-linejoin="round"/>
        <path d="M3.5 14.1666L18 14.1666M18 14.1666L13.875 10.8333M18 14.1666L13.875 17.4999" stroke="currentColor"
              stroke-width="1.5" stroke-linecap="round" stroke-linejoin="round"/>
    </symbol>
</svg>
